<?xml version="1.0" encoding="utf-8"?>
<!-- Generator: Adobe Illustrator 14.0.0, SVG Export Plug-In . SVG Version: 6.00 Build 43363)  -->
<!DOCTYPE svg PUBLIC "-//W3C//DTD SVG 1.1//EN" "http://www.w3.org/Graphics/SVG/1.1/DTD/svg11.dtd">
<svg version="1.1" id="Layer_1" xmlns="http://www.w3.org/2000/svg" xmlns:xlink="http://www.w3.org/1999/xlink" x="0px" y="0px"
	 width="1065px" height="1145px" viewBox="0 0 1065 1145" enable-background="new 0 0 1065 1145" xml:space="preserve">
<polygon points="0,0 0,115 0,116 0,1145 1065,1145 1065,116 1065,115 1065,0 "/>
<g>
	<polygon fill="#B51218" points="195.25,245 195.25,200 147.25,200 100.25,200 100.25,245 100.25,582.498 100.25,625 
		100.25,627.498 195.25,627.498 195.25,582.498 147.25,582.498 147.25,245 	"/>
	<polygon fill="#B51218" points="870.25,245 870.25,200 918.25,200 965.25,200 965.25,245 965.25,582.498 965.25,625 
		965.25,627.498 870.25,627.498 870.25,582.498 918.25,582.498 918.25,245 	"/>
</g>
<path fill="#B51218" d="M492.25,524v45h26c0,22.671-12.239,31.838-26,45.6l15.921,24.311c20.683-21.098,39.079-35.152,39.079-69.91
	v-45H492.25z"/>
<g>
	<polygon opacity="0.25" fill="#FFFFFF" points="340.5,410.519 407.834,341.519 273.166,341.519 	"/>
	<path opacity="0.46" fill="#FFFFFF" d="M199,293.519l130,133.216v122.238c-42.889,1.529-76,11.487-76,23.546h175
		c0-12.059-33.111-22.017-76-23.546V426.734l130-133.216 M437.11,311.519l-96.61,99l-96.61-99 M370.725,336.766l43.759-59.5
		l-11.3-4.534l-37.287,60.701c-10.862-5.45-25.516-1.201-34.372,10.57c-9.781,13-8.788,30.252,2.218,38.532
		c0.456,0.343,0.926,0.658,1.401,0.96L329,393.5l6.981-9.493c10.949,6.266,26.261,2.132,35.4-10.015
		C380.676,361.639,380.235,345.452,370.725,336.766z"/>
</g>
<g>
	<g opacity="0.46">
		<path fill="#FFFFFF" d="M866,465v-22h-47.021c-0.081-9.451-0.913-18.653-2.438-27.491l36.605-20.915l-10.914-19.102
			l-31.177,17.813c-2.268-6.948-4.978-13.565-8.089-19.777C783.943,391.634,756.506,403,726,403
			c-29.42,0-55.983-10.575-74.901-27.568c-2.792,5.799-5.232,11.942-7.303,18.36l-32.028-18.3l-10.914,19.102l37.521,21.438
			c-1.47,8.678-2.274,17.703-2.354,26.968H588v22h49.222c1.03,8.596,2.694,16.897,4.929,24.811l-41.297,23.595l10.914,19.102
			l38.027-21.727C665.949,546.334,694.707,570,727.5,570c32.653,0,61.307-23.464,77.499-58.766l37.233,21.273l10.914-19.102
			l-40.434-23.102c2.305-8.061,4.014-16.53,5.065-25.304H866z"/>
		<path fill="#FFFFFF" d="M636,291c5,0,46.869,25,41.935,48l0.002-0.001c-7.534,6.675-14.309,14.824-20.104,24.154
			C676.086,374.893,699.922,382,726,382c27.1,0,51.775-7.677,70.285-20.25c-5.614-8.773-12.109-16.457-19.291-22.807l0.081,0.057
			c-4.935-23,36.935-48,41.935-48s20-13,0-13s-56,25-58.5,49.424l0.028,0.02C750.289,321.997,739.151,319,727.5,319
			c-11.637,0-22.763,2.99-33,8.424C692,303,656,278,636,278S631,291,636,291z"/>
	</g>
	<circle opacity="0.8" cx="694.5" cy="449.5" r="18.5"/>
	<circle opacity="0.8" cx="746" cy="502" r="28"/>
</g>
<text transform="matrix(1 0 0 1 88.6201 850.9492)"><tspan x="0" y="0" fill="#FFFFFF" font-family="'OpenSans-Extrabold'" font-size="200" letter-spacing="-1">l</tspan><tspan x="63.648" y="0" fill="#FFFFFF" font-family="'OpenSans-Extrabold'" font-size="200" letter-spacing="-5">ou</tspan><tspan x="314.674" y="0" fill="#FFFFFF" font-family="'OpenSans-Extrabold'" font-size="200" letter-spacing="-4">n</tspan><tspan x="444.458" y="0" fill="#FFFFFF" font-family="'OpenSans-Extrabold'" font-size="200">ge</tspan></text>
<text transform="matrix(1 0 0 1 85.6201 1029.9404)"><tspan x="0" y="0" fill="#FFFFFF" font-family="'OpenSans'" font-size="198" letter-spacing="-6">h</tspan><tspan x="115.388" y="0" fill="#FFFFFF" font-family="'OpenSans'" font-size="198" letter-spacing="-6">a</tspan><tspan x="218.577" y="0" fill="#FFFFFF" font-family="'OpenSans'" font-size="198">c</tspan><tspan x="311.849" y="0" fill="#FFFFFF" font-family="'OpenSans'" font-size="198" letter-spacing="-4">k</tspan><tspan x="410.83" y="0" fill="#FFFFFF" font-family="'OpenSans'" font-size="198" letter-spacing="-8">e</tspan><tspan x="513.599" y="0" fill="#FFFFFF" font-family="'OpenSans'" font-size="198">r</tspan><tspan x="594.226" y="0" fill="#FFFFFF" font-family="'OpenSans'" font-size="198">s</tspan></text>
<text transform="matrix(1 0 0 1 95.6201 158.4492)" fill="#FFFFFF" font-family="'OpenSans-Semibold'" font-size="120">STHLM</text>
</svg>
