<?xml version="1.0" encoding="utf-8"?>
<!-- Generator: Adobe Illustrator 14.0.0, SVG Export Plug-In . SVG Version: 6.00 Build 43363)  -->
<!DOCTYPE svg PUBLIC "-//W3C//DTD SVG 1.1//EN" "http://www.w3.org/Graphics/SVG/1.1/DTD/svg11.dtd">
<svg version="1.1" id="Layer_1" xmlns="http://www.w3.org/2000/svg" xmlns:xlink="http://www.w3.org/1999/xlink" x="0px" y="0px"
	 width="1065px" height="1030px" viewBox="0 0 1065 1030" enable-background="new 0 0 1065 1030" xml:space="preserve">
<rect width="1065" height="1030"/>
<g>
	<polygon fill="#B51218" points="195.25,130 195.25,85 147.25,85 100.25,85 100.25,130 100.25,467.498 100.25,510 100.25,512.498 
		195.25,512.498 195.25,467.498 147.25,467.498 147.25,130 	"/>
	<polygon fill="#B51218" points="870.25,130 870.25,85 918.25,85 965.25,85 965.25,130 965.25,467.498 965.25,510 965.25,512.498 
		870.25,512.498 870.25,467.498 918.25,467.498 918.25,130 	"/>
</g>
<path fill="#B51218" d="M492.25,409v45h26c0,22.671-12.239,31.838-26,45.599l15.921,24.311
	c20.683-21.098,39.079-35.152,39.079-69.91v-45H492.25z"/>
<g>
	<polygon opacity="0.25" fill="#FFFFFF" points="340.5,295.519 407.834,226.519 273.166,226.519 	"/>
	<path opacity="0.46" fill="#FFFFFF" d="M199,178.519l130,133.216v122.238c-42.889,1.529-76,11.487-76,23.546h175
		c0-12.059-33.111-22.017-76-23.546V311.734l130-133.216 M437.11,196.519l-96.61,99l-96.61-99 M370.725,221.766l43.759-59.5
		l-11.3-4.534l-37.287,60.701c-10.862-5.45-25.516-1.201-34.372,10.57c-9.781,13-8.788,30.252,2.218,38.532
		c0.456,0.343,0.926,0.658,1.401,0.96L329,278.5l6.981-9.493c10.949,6.266,26.261,2.132,35.4-10.015
		C380.676,246.639,380.235,230.452,370.725,221.766z"/>
</g>
<g>
	<g opacity="0.46">
		<path fill="#FFFFFF" d="M866,350v-22h-47.021c-0.081-9.451-0.913-18.653-2.438-27.491l36.605-20.915l-10.914-19.102
			l-31.177,17.813c-2.268-6.948-4.978-13.565-8.089-19.777C783.943,276.634,756.506,288,726,288
			c-29.42,0-55.983-10.575-74.901-27.568c-2.792,5.799-5.232,11.942-7.303,18.36l-32.028-18.3l-10.914,19.102l37.521,21.438
			c-1.47,8.678-2.274,17.703-2.354,26.968H588v22h49.222c1.03,8.596,2.694,16.897,4.929,24.811l-41.297,23.595l10.914,19.102
			l38.027-21.727C665.949,431.334,694.707,455,727.5,455c32.653,0,61.307-23.464,77.499-58.766l37.233,21.273l10.914-19.102
			l-40.434-23.102c2.305-8.061,4.014-16.53,5.065-25.304H866z"/>
		<path fill="#FFFFFF" d="M636,176c5,0,46.869,25,41.935,48l0.002-0.001c-7.534,6.675-14.309,14.824-20.104,24.154
			C676.086,259.893,699.922,267,726,267c27.1,0,51.775-7.677,70.285-20.25c-5.614-8.773-12.109-16.457-19.291-22.807l0.081,0.057
			c-4.935-23,36.935-48,41.935-48s20-13,0-13s-56,25-58.5,49.424l0.028,0.02C750.289,206.997,739.151,204,727.5,204
			c-11.637,0-22.763,2.99-33,8.424C692,188,656,163,636,163S631,176,636,176z"/>
	</g>
	<circle opacity="0.8" cx="694.5" cy="334.5" r="18.5"/>
	<circle opacity="0.8" cx="746" cy="387" r="28"/>
</g>
<text transform="matrix(1 0 0 1 88.6201 735.9492)"><tspan x="0" y="0" fill="#FFFFFF" font-family="'OpenSans-Extrabold'" font-size="200" letter-spacing="-1">l</tspan><tspan x="63.648" y="0" fill="#FFFFFF" font-family="'OpenSans-Extrabold'" font-size="200" letter-spacing="-5">ou</tspan><tspan x="314.674" y="0" fill="#FFFFFF" font-family="'OpenSans-Extrabold'" font-size="200" letter-spacing="-4">n</tspan><tspan x="444.458" y="0" fill="#FFFFFF" font-family="'OpenSans-Extrabold'" font-size="200">ge</tspan></text>
<text transform="matrix(1 0 0 1 85.6201 914.9404)"><tspan x="0" y="0" fill="#FFFFFF" font-family="'OpenSans'" font-size="198" letter-spacing="-6">h</tspan><tspan x="115.388" y="0" fill="#FFFFFF" font-family="'OpenSans'" font-size="198" letter-spacing="-6">a</tspan><tspan x="218.577" y="0" fill="#FFFFFF" font-family="'OpenSans'" font-size="198">c</tspan><tspan x="311.849" y="0" fill="#FFFFFF" font-family="'OpenSans'" font-size="198" letter-spacing="-4">k</tspan><tspan x="410.83" y="0" fill="#FFFFFF" font-family="'OpenSans'" font-size="198" letter-spacing="-8">e</tspan><tspan x="513.599" y="0" fill="#FFFFFF" font-family="'OpenSans'" font-size="198">r</tspan><tspan x="594.226" y="0" fill="#FFFFFF" font-family="'OpenSans'" font-size="198">s</tspan></text>
</svg>
